<svg width="97" height="37" viewBox="0 0 97 37" fill="none" xmlns="http://www.w3.org/2000/svg">
<g clip-path="url(#clip0_11_285)">
<path fill-rule="evenodd" clip-rule="evenodd" d="M33.6173 0.0132664C34.1333 0.0132664 34.4243 0 34.4772 0H34.8476H35.218H35.3107H35.5885H35.9721H36.1573H36.3557H36.7394H36.9907H37.1363H37.5464H37.8506H37.9432H78.6886H78.887H79.1648H79.6278H79.7866H80.1041H80.5671H80.6861H81.0433H81.5064H81.5857H81.9826H82.4456H82.4853H82.9219H83.3716H83.3849H83.8611H84.258H84.3241H84.8004H85.1443H85.2634H85.7396H86.0174H86.2026H86.6657H86.8906H87.1419H87.6049H87.7637H88.0812H88.5442H88.6368H89.0204H89.4834H89.4967H89.9597H90.3433H90.4227H90.8989H91.19H91.362H91.8382H92.0366H92.3012H92.7775H92.8833H93.2405H93.6374H93.6506H93.6638H93.677H93.6903H93.7035H93.7167H93.73H93.7432C94.6031 0 95.3968 0.344926 95.9789 0.915382C96.4551 1.39297 96.7991 2.01649 96.9049 2.70635C96.9314 2.83901 96.9446 2.95841 96.9578 3.09107C96.9578 3.14414 96.9578 3.18394 96.9578 3.22374H96.9446V3.2768L96.9314 3.71459C96.9314 3.94012 96.9182 4.07279 96.9182 4.15238L96.9049 4.48404L96.8917 4.60344L96.8785 4.90857C96.8785 4.94837 96.8652 4.98817 96.8652 5.02797L96.8388 5.42596H96.8255V5.46576L96.7991 5.74435C96.7991 5.79742 96.7991 5.83722 96.7859 5.89028L96.7594 6.19541L96.7462 6.30154L96.7065 6.65973V6.72607C96.68 6.872 96.6933 6.73933 96.6536 7.05773C96.6536 7.09753 96.6403 7.13732 96.6403 7.17712L96.5874 7.56185H96.5742V7.58838L96.5345 7.84044C96.5345 7.89351 96.5213 7.95984 96.508 8.01291L96.4684 8.2915C96.4551 8.3313 96.4551 8.3711 96.4419 8.42417C96.4419 8.47723 96.389 8.68949 96.3096 9.12729C96.2964 9.16708 96.2964 9.22015 96.2832 9.27322L96.217 9.56508L96.2038 9.67121L96.1376 9.9498C96.1244 10.0029 96.1244 10.0559 96.1112 10.0957L96.0186 10.4805L96.0053 10.507L95.9392 10.7989C95.9392 10.8254 95.926 10.8652 95.9127 10.905C95.8731 11.0642 95.8334 11.1968 95.8069 11.3162L95.7275 11.6081C95.7143 11.6479 95.7143 11.6877 95.7011 11.7275L95.5953 12.1122L95.582 12.099V12.1122L95.5026 12.3908C95.4894 12.4439 95.4762 12.4837 95.463 12.5367L95.3439 12.9082H95.3307V12.9215L95.2513 13.1735C95.2381 13.2266 95.2248 13.2664 95.2116 13.3062C95.2116 13.3195 95.2778 13.1337 95.2116 13.3195L95.1984 13.3327L95.0793 13.7042H95.0661L94.9867 13.943C94.9735 14.0093 94.947 14.0624 94.9338 14.1287L94.828 14.4206L94.7883 14.5134L94.656 14.8716L94.6428 14.8982L94.4972 15.2431L94.484 15.2829L94.3385 15.6544L94.3253 15.6676L94.2194 15.9197C94.2062 15.9595 94.193 16.0125 94.1665 16.0523L94.0607 16.3044C94.0475 16.3442 94.021 16.384 94.0078 16.4371L93.9019 16.6759C93.8755 16.7157 93.8623 16.7687 93.8358 16.8085L93.677 17.1535L93.6506 17.1933L93.4918 17.5382L93.4786 17.5515L93.3066 17.8964L93.2934 17.9229L93.1876 18.1352C93.1611 18.1882 93.1347 18.2413 93.1082 18.2944L92.9494 18.5995L92.923 18.6526L92.7378 18.9842L92.7245 19.024L92.5658 19.3026L92.5261 19.3689C92.4864 19.4353 92.3674 19.6475 92.1557 19.9925L91.8647 20.4966C91.8382 20.5231 91.825 20.5629 91.7985 20.5895L91.7588 20.6558V20.6691L91.6927 20.7619L91.6795 20.7885L91.5736 20.9476C91.5472 21.014 91.5075 21.0803 91.4678 21.1334L91.2561 21.4518L91.2429 21.4783L91.0312 21.7834L91.0048 21.8232L90.8593 22.0355C90.8328 22.0753 90.8063 22.1151 90.7799 22.1549L90.5947 22.4202L90.5418 22.4998L90.3169 22.8049L90.3036 22.8182L90.0787 23.1233H90.0655L90.0523 23.1499L89.8935 23.3621C89.8671 23.4019 89.8406 23.4417 89.8142 23.4815L89.6819 23.6407C89.6422 23.6938 89.6157 23.7469 89.576 23.7867C89.5364 23.8265 89.4967 23.8795 89.3247 24.1051H89.3115V24.1183L89.1527 24.3173C89.113 24.3571 89.0866 24.3969 89.0469 24.4367L88.8088 24.7286L88.7823 24.7418L88.5442 25.0337L88.531 25.047C88.2664 25.3521 88.3193 25.299 88.2664 25.3654H88.2531L88.0018 25.6572V25.644L87.9753 25.6705L87.724 25.9491L87.7108 25.9756L87.4462 26.2542H87.4329C87.3668 26.3338 87.261 26.4399 87.1419 26.5593L86.8773 26.8247L86.8641 26.8512L86.6128 27.09L86.5598 27.1431L86.3349 27.3686L86.2688 27.4217L86.0307 27.6472L85.991 27.7002C85.7661 27.8992 85.5809 28.0717 85.4354 28.2044L85.3825 28.2574L85.0914 28.5095L85.0649 28.5228L84.8665 28.6952C84.8268 28.735 84.8004 28.7616 84.7607 28.7881L84.549 28.9606C84.5226 29.0004 84.4829 29.0269 84.4432 29.0534L84.1522 29.2922L84.1257 29.3055L83.9008 29.4912L83.8214 29.5575L83.6098 29.73C83.5701 29.7565 83.5304 29.7831 83.4907 29.8229L83.2658 29.9953C83.2393 30.0086 83.2129 30.0351 83.1864 30.0617L82.9351 30.2341C82.9086 30.2607 82.8689 30.2872 82.8425 30.3137L82.5382 30.5393L82.4985 30.5525L82.1943 30.7781L82.181 30.7913L81.8635 31.0036L81.8371 31.0168L81.6122 31.1628C81.5857 31.1893 81.546 31.2158 81.5064 31.2424L81.1756 31.4546L81.1492 31.4679L80.9772 31.5873C80.9243 31.6271 80.8714 31.6536 80.8184 31.6934L80.5936 31.8261C80.5539 31.8526 80.5142 31.8792 80.4877 31.9057C80.157 32.1047 80.5274 31.8659 80.1305 32.1047V32.118L79.7734 32.3302V32.317L79.7601 32.3302L79.522 32.4629C79.4823 32.4894 79.4426 32.516 79.4029 32.5425L79.2442 32.6353C79.178 32.6751 79.1119 32.7017 79.0458 32.7415L78.715 32.9272V32.9139L78.6886 32.9405L78.3446 33.1129L78.3314 33.1262L78.1462 33.2191C78.0536 33.2721 77.961 33.3252 77.8684 33.365L77.617 33.4844L77.5773 33.4977L77.3789 33.5905C77.326 33.6171 77.2731 33.6436 77.2202 33.6701L76.982 33.7763C76.9423 33.8028 76.8894 33.8293 76.8365 33.8559L76.4926 34.0151L76.4661 34.0283L76.1089 34.1743L76.0825 34.1875L75.8179 34.3069C75.7782 34.3202 75.7517 34.3335 75.712 34.3467L75.5268 34.4263C75.4607 34.4528 75.3945 34.4926 75.3284 34.5192L74.9712 34.6518H74.9448L74.6802 34.758C74.6537 34.7712 74.614 34.7845 74.5743 34.7978C74.5214 34.8243 74.5082 34.8243 74.2833 34.9039C74.2569 34.9172 74.2172 34.9304 74.1775 34.9437L73.8997 35.0498C73.86 35.0631 73.8203 35.0764 73.7938 35.0896C73.6616 35.1294 73.5293 35.1692 73.397 35.2223L73.1324 35.3019C73.0795 35.3284 73.0266 35.3417 72.9736 35.355L72.6032 35.4744H72.59L72.3254 35.554C72.2857 35.5672 72.246 35.5805 72.1931 35.5938C72.0079 35.6601 71.8889 35.6866 71.7963 35.7132H71.783L71.5052 35.7928C71.4655 35.806 71.4126 35.8193 71.3729 35.8326L71.0951 35.8989C71.0554 35.9122 71.0157 35.9254 70.9628 35.9387L70.6982 36.005C70.6586 36.0183 70.6057 36.0315 70.566 36.0448L70.1823 36.1244H70.1559C69.9707 36.1775 69.7325 36.2173 69.4415 36.2836L69.3489 36.3101L68.9256 36.3897H68.9123L68.6478 36.4428C68.5948 36.4561 68.5419 36.4561 68.489 36.4693L68.1054 36.5357H68.0921C67.7085 36.602 67.7746 36.5887 67.6688 36.602C67.5497 36.6285 67.6556 36.6153 67.3249 36.6551L67.2587 36.6683L67.0074 36.6949C66.9412 36.7081 66.8751 36.7214 66.8089 36.7214L66.412 36.7745H66.3856L65.9887 36.8143H65.9755C65.5125 36.8673 65.8167 36.8408 65.5522 36.8673L65.1156 36.8939L64.6791 36.9204C64.6261 36.9337 64.4806 36.9337 64.2557 36.9469H64.2425L63.8324 36.9602H63.8059L63.4091 36.9735H63.3826C62.8667 36.9867 62.5756 37 62.5227 37H3.34937H3.28322H3.25676C3.1377 37 3.03187 36.9867 2.91281 36.9735C2.15876 36.8939 1.48408 36.5489 0.968145 36.0315C0.399297 35.4478 0.0421143 34.6518 0.0421143 33.7763H0.0553433V33.7099V33.3385L0.0685723 33.2854V33.0466V32.967C0.0685723 32.8609 0.0818013 32.7547 0.0950303 32.6619L0.108259 32.4098L0.121488 32.0649L0.134717 31.972L0.161175 31.5608H0.174404V31.5342L0.187633 31.3352C0.187633 31.2026 0.200862 31.0699 0.22732 30.924L0.253778 30.6985L0.280236 30.3801C0.293465 30.2607 0.306694 30.1545 0.333152 30.0484L0.346381 29.929L0.35961 29.8494C0.412526 29.4514 0.386068 29.5841 0.412527 29.4249V29.4116C0.425756 29.3188 0.412527 29.4116 0.491901 28.9871C0.544817 28.6156 0.531588 28.6687 0.544817 28.5758H0.558046V28.5626L0.610962 28.2972C0.610962 28.2442 0.624191 28.2044 0.63742 28.1513L0.677107 27.9523C0.690336 27.8064 0.716794 27.6604 0.756481 27.5278C0.782939 27.3819 0.76971 27.4482 0.796168 27.3288L0.809397 27.3155L0.862313 27.0237C0.875542 26.9839 0.875542 26.9573 0.888771 26.9175L0.954916 26.6389C0.968145 26.5859 0.981374 26.5328 0.994603 26.4797L1.06075 26.2011C1.06075 26.1613 1.07398 26.1348 1.08721 26.095C1.12689 25.9358 1.15335 25.8032 1.19304 25.6838L1.29887 25.2725C1.32533 25.2194 1.3121 25.2327 1.41793 24.8878L1.53699 24.4765C1.60314 24.2908 1.65605 24.0918 1.7222 23.8795C1.74866 23.8132 1.76189 23.7469 1.78834 23.6805C1.88095 23.4019 1.73543 23.8397 1.93386 23.2825L1.98678 23.1101C2.02647 22.9509 2.07938 22.8049 2.14553 22.6723L2.21167 22.4998L2.29105 22.2876C2.30427 22.2212 2.33073 22.1549 2.35719 22.0886L2.48948 21.7304L2.50271 21.7436V21.7304L2.58208 21.5314C2.635 21.3854 2.68792 21.2528 2.75406 21.1201L2.78052 21.0803C2.79375 21.0272 2.80698 20.9874 2.83344 20.9476L2.93927 20.6956C2.9525 20.6558 2.97895 20.6027 2.99218 20.5629L3.15093 20.218L3.16416 20.2047L3.33614 19.8333L3.50811 19.4485L3.52134 19.4618V19.4485C3.66686 19.1567 3.65363 19.17 3.69332 19.0771H3.70655L3.81238 18.8648C3.83884 18.8118 3.85207 18.772 3.87853 18.7189L3.97113 18.5464C4.02405 18.427 4.09019 18.3076 4.15634 18.1882L4.26217 18.0025L4.47383 17.631C4.6855 17.2596 4.60612 17.3923 4.67227 17.2729L4.6855 17.2596L4.83102 17.0075L4.88393 16.9147C4.98976 16.7289 5.0956 16.5565 5.20143 16.384C5.25434 16.2779 5.32049 16.185 5.38663 16.0921L5.46601 15.9595C5.49247 15.9329 5.50569 15.8932 5.53215 15.8534L5.74382 15.535H5.75705C5.82319 15.4156 5.90257 15.2962 5.98194 15.19L5.99517 15.1768L6.20683 14.8584C6.44495 14.5134 6.37881 14.6063 6.44495 14.5134L6.68308 14.1818L6.69631 14.1685L6.9212 13.8634H6.93443L7.04026 13.7042C7.11963 13.5848 7.21224 13.4654 7.31807 13.3593L7.34453 13.3327C7.37099 13.2797 7.39744 13.2399 7.43713 13.2001L7.58265 13.0143C7.63557 12.9215 7.71494 12.8419 7.79431 12.7623L7.93983 12.5633V12.5765L7.95306 12.5633L8.19118 12.2714L8.20441 12.2449L8.45576 11.9663L8.46899 11.9398L8.58805 11.8071C8.66743 11.701 8.7468 11.6081 8.83941 11.5285L8.99815 11.3428H9.01138L9.17013 11.157C9.23628 11.0774 9.31565 10.9846 9.40825 10.905L9.567 10.7458L9.71252 10.5733C9.79189 10.4805 9.8845 10.4009 9.96387 10.3213C10.0962 10.1753 9.99033 10.2947 10.1226 10.1488H10.1358C10.2417 10.0559 10.3343 9.9498 10.4269 9.85694V9.8702C10.5327 9.76407 10.6121 9.68447 10.6915 9.60488L10.7179 9.57834L10.956 9.35281L11.0222 9.28648L11.3 9.03442H11.3132L11.4587 8.88849L11.5249 8.82216C11.5249 8.82216 11.5249 8.82216 11.5646 8.79562L11.6175 8.74256L11.9085 8.4905L11.935 8.46396L12.1731 8.26497L12.226 8.2119C12.3848 8.07924 12.5832 7.92004 12.8478 7.70778V7.69451L13.1124 7.49552L13.1917 7.42919L13.3902 7.28325C13.4299 7.24346 13.4563 7.21692 13.5092 7.17712L13.7341 7.00466L13.8135 6.93833L14.1442 6.69953L14.3824 6.5138C14.422 6.48727 14.4617 6.46074 14.4882 6.44747L14.8057 6.22194C15.1364 5.99641 15.0703 6.03621 15.1496 5.98315L15.1629 5.96988L15.3084 5.87702C15.4275 5.78415 15.5597 5.69129 15.692 5.62495L15.7846 5.57189L15.8376 5.53209L15.9698 5.43922C16.0889 5.35963 16.208 5.28003 16.327 5.2137C16.5519 5.06777 16.3799 5.1739 16.5122 5.0943H16.5255C16.6445 5.0147 16.4725 5.12083 16.6974 4.98817C16.7504 4.96163 16.8033 4.92184 16.8562 4.88204C17.1075 4.73611 16.8694 4.88204 17.2134 4.68304L17.2398 4.66977L17.4647 4.53711C17.5176 4.51058 17.5573 4.48404 17.597 4.45751L17.9277 4.27178L17.941 4.25852L18.2849 4.08605L18.2981 4.07279L18.4966 3.96665C18.5495 3.94012 18.6024 3.90032 18.6553 3.87379C18.7215 3.83399 18.6818 3.86052 19.0257 3.68806L19.0522 3.67479L19.3829 3.5156H19.3962L19.5814 3.42273C19.6475 3.38293 19.7004 3.3564 19.7666 3.32987C19.8989 3.25027 19.7533 3.32987 20.0179 3.21047C20.0576 3.18394 20.0973 3.17067 20.137 3.1574L20.5206 2.98494C20.9175 2.79921 20.772 2.86554 20.891 2.81248H20.9043L21.063 2.74615C21.1953 2.67981 21.3276 2.61348 21.4731 2.57368L21.5657 2.53388L21.6583 2.49408L21.8435 2.41449C21.9494 2.37469 22.0552 2.32162 22.161 2.29509L22.4124 2.18896V2.20222L22.4256 2.18896C22.4653 2.17569 22.4917 2.16242 22.6637 2.10936C22.7299 2.08283 22.7828 2.05629 22.8357 2.04303L23.2061 1.91036L23.4971 1.8175C23.5368 1.80423 23.5633 1.79096 23.603 1.7777C23.7353 1.7379 23.8676 1.68483 23.9998 1.64503C24.1718 1.59197 24.2909 1.55217 24.3967 1.52564L24.6745 1.43277C24.7142 1.41951 24.7539 1.40624 24.7936 1.40624C24.992 1.33991 25.1111 1.30011 25.2037 1.28684L25.6006 1.16744L26.0107 1.06131C26.2488 0.99498 25.9842 1.07458 26.4208 0.968447L26.606 0.928648C26.725 0.888849 26.8573 0.84905 26.9896 0.835783L27.241 0.769451C27.3732 0.742918 27.2674 0.769451 27.5717 0.716386L27.6511 0.689853L28.0744 0.610255H28.0876L28.2728 0.570455C28.3919 0.543922 28.5109 0.51739 28.6432 0.504123L28.9078 0.464324C29.2915 0.397992 29.2121 0.411258 29.3311 0.384726C29.4237 0.371459 29.3311 0.384726 29.6751 0.344926L29.7412 0.33166C30.072 0.291861 30.1249 0.278594 30.1778 0.265328V0.278594C30.5879 0.225529 30.5218 0.225529 30.6011 0.225529L31.0245 0.18573C31.5272 0.132664 31.2361 0.14593 31.4478 0.132664L31.8843 0.106131L32.3209 0.066332L32.7442 0.0530656L33.1411 0.0397992L33.1676 0.0265328C33.2602 0.0265328 33.4057 0.0265328 33.6173 0.0132664Z" fill="#FEFEFE"/>
<path fill-rule="evenodd" clip-rule="evenodd" d="M34.4772 2.44101C34.2126 2.44101 33.9348 2.45428 33.6702 2.45428C33.4056 2.46754 33.1278 2.48081 32.8632 2.49408C32.5986 2.50734 32.3208 2.52061 32.0563 2.53387C31.7917 2.56041 31.5271 2.58694 31.2625 2.61347C30.9979 2.64001 30.7334 2.66654 30.4688 2.69307C30.2042 2.73287 29.9528 2.77267 29.6883 2.81247C29.4237 2.85227 29.1723 2.89207 28.9078 2.93187C28.6564 2.98493 28.3918 3.02473 28.1405 3.0778C27.8759 3.13086 27.6245 3.18393 27.3732 3.25026C27.1218 3.30333 26.8573 3.36966 26.6059 3.43599C26.3546 3.50232 26.1032 3.56865 25.8519 3.63499C25.6137 3.70132 25.3624 3.78092 25.111 3.84725C24.8597 3.92685 24.6216 4.00644 24.3702 4.08604C24.1321 4.17891 23.894 4.25851 23.6426 4.35137C23.4045 4.43097 23.1664 4.52383 22.9282 4.6167C22.6901 4.70956 22.452 4.80243 22.2139 4.90856C21.9758 5.00143 21.7376 5.10756 21.5127 5.21369C21.2746 5.31982 21.0365 5.42595 20.8116 5.53208C20.5735 5.63821 20.3486 5.75761 20.1237 5.86374C19.8988 5.98314 19.6739 6.10254 19.449 6.22193C19.2241 6.34133 18.9992 6.46073 18.7743 6.59339C18.5627 6.71279 18.3378 6.84546 18.1129 6.97812C17.9012 7.11078 17.6896 7.24345 17.4647 7.37611C17.253 7.50877 17.0413 7.65471 16.8297 7.78737C16.618 7.9333 16.4063 8.07923 16.2079 8.22516C15.9962 8.37109 15.7846 8.51702 15.5861 8.66295C15.3877 8.80888 15.176 8.96808 14.9776 9.12728C14.7792 9.27321 14.5807 9.4324 14.3823 9.5916C14.1839 9.7508 13.9987 9.90999 13.8002 10.0825C13.615 10.2417 13.4166 10.4141 13.2314 10.5733C13.0462 10.7458 12.861 10.9182 12.6758 11.0907C12.4906 11.2632 12.3053 11.4356 12.1201 11.6081C11.9482 11.7938 11.763 11.9663 11.591 12.152C11.4058 12.3377 11.2338 12.5102 11.0618 12.6959C10.8898 12.8817 10.7179 13.0674 10.5591 13.2664C10.3871 13.4521 10.2284 13.6379 10.0564 13.8368C9.89767 14.0358 9.73892 14.2216 9.58017 14.4206C9.42143 14.6196 9.26268 14.8186 9.10393 15.0176C8.95841 15.2166 8.79966 15.4288 8.65414 15.6278C8.49539 15.8268 8.34988 16.0391 8.20436 16.2513C8.05884 16.4503 7.92655 16.6626 7.78103 16.8749C7.63551 17.0871 7.50322 17.2994 7.37093 17.5116C7.23864 17.7372 7.10635 17.9494 6.97406 18.175C6.84177 18.3872 6.70948 18.6128 6.59042 18.825C6.45813 19.0505 6.33907 19.2761 6.22001 19.5016C6.10094 19.7271 5.98188 19.9527 5.87605 20.1782C5.75699 20.4037 5.63793 20.6425 5.5321 20.868C5.42627 21.1068 5.32043 21.3324 5.2146 21.5712C5.10877 21.7967 5.00294 22.0355 4.91033 22.2743C4.81773 22.5131 4.7119 22.7519 4.6193 22.9907C4.52669 23.2295 4.44732 23.4683 4.35472 23.7203C4.26211 23.9591 4.18274 24.1979 4.10336 24.45C4.02399 24.6888 3.94462 24.9408 3.86524 25.1929C3.78587 25.4317 3.71972 25.6837 3.65358 25.9358H3.64035C3.5742 26.1879 3.50806 26.4399 3.44191 26.692C3.37577 26.9441 3.32285 27.1961 3.26994 27.4482C3.20379 27.7002 3.15088 27.9656 3.09796 28.2176C3.04504 28.483 3.00536 28.735 2.95244 29.0003C2.91275 29.2524 2.85984 29.5177 2.83338 29.7831C2.79369 30.0351 2.75401 30.3005 2.71432 30.5658C2.68786 30.8311 2.6614 31.0964 2.63494 31.3618C2.60849 31.6271 2.58203 31.8924 2.55557 32.1578C2.54234 32.4231 2.52911 32.6884 2.51588 32.967C2.50265 33.2323 2.48943 33.4977 2.4762 33.7763C2.4762 34.2008 2.82015 34.5457 3.24348 34.5457H3.25671H3.34931H3.28317C22.3726 34.5457 43.4332 34.5457 62.5227 34.5457C62.7872 34.5457 63.0518 34.5457 63.3296 34.5457C63.5942 34.5324 63.872 34.5192 64.1366 34.5059C64.4012 34.4926 64.6658 34.4794 64.9436 34.4528C65.2082 34.4396 65.4727 34.413 65.7373 34.3865C66.0019 34.36 66.2665 34.3334 66.5311 34.2936C66.7824 34.2671 67.047 34.2273 67.3116 34.1875C67.5761 34.1477 67.8275 34.1079 68.0921 34.0548C68.3434 34.015 68.608 33.962 68.8594 33.9089C69.1239 33.8559 69.3753 33.8028 69.6266 33.7497C69.878 33.6967 70.1293 33.6303 70.3939 33.564C70.6453 33.4977 70.8834 33.4313 71.1348 33.365C71.3861 33.2987 71.6375 33.2191 71.8888 33.1395C72.1269 33.0731 72.3783 32.9935 72.6164 32.9007C72.8677 32.8211 73.1059 32.7415 73.3572 32.6486C73.5953 32.569 73.8335 32.4761 74.0716 32.3833C74.3097 32.2904 74.5478 32.1843 74.7859 32.0914C75.0241 31.9986 75.2622 31.8924 75.4871 31.7863C75.7252 31.6802 75.9633 31.574 76.1882 31.4679C76.4131 31.3485 76.6512 31.2424 76.8761 31.123C77.101 31.0168 77.3259 30.8974 77.5508 30.778C77.7757 30.6586 78.0006 30.526 78.2255 30.4066C78.4372 30.2739 78.662 30.1545 78.8737 30.0219C79.0986 29.8892 79.3103 29.7565 79.5219 29.6239C79.7468 29.4912 79.9585 29.3453 80.1702 29.2126C80.3818 29.0667 80.5803 28.9207 80.7919 28.7748C81.0036 28.6289 81.202 28.483 81.4137 28.337C81.6121 28.1778 81.8106 28.0319 82.0222 27.8727C82.2207 27.7268 82.4191 27.5676 82.6175 27.4084C82.8027 27.2492 83.0012 27.0767 83.1996 26.9175C83.3848 26.7583 83.5832 26.5859 83.7684 26.4267C83.9537 26.2542 84.1389 26.0817 84.3241 25.9093C84.5093 25.7368 84.6945 25.5643 84.8797 25.3786C85.0517 25.2062 85.2369 25.0337 85.4088 24.848C85.5808 24.6622 85.766 24.4765 85.938 24.2908C86.11 24.105 86.2687 23.9193 86.4407 23.7336C86.6127 23.5479 86.7714 23.3489 86.9434 23.1631C87.1022 22.9641 87.2609 22.7784 87.4197 22.5794C87.5784 22.3804 87.7372 22.1814 87.8959 21.9824C88.0414 21.7702 88.2002 21.5712 88.3457 21.3722C88.4912 21.1599 88.65 20.9609 88.7822 20.7486C88.9278 20.5364 89.0733 20.3374 89.2188 20.1251C89.3511 19.9129 89.4966 19.7006 89.6289 19.4751C89.6554 19.422 89.6951 19.3689 89.7215 19.3291C89.9596 18.9444 90.1845 18.5597 90.4094 18.1617C90.5285 17.9494 90.6608 17.7239 90.7798 17.4984C90.8989 17.2728 91.0179 17.0473 91.1238 16.8218C91.2428 16.583 91.3487 16.3575 91.4677 16.1319C91.5736 15.8931 91.6794 15.6676 91.7852 15.4288C91.8911 15.19 91.9837 14.9645 92.0895 14.7257C92.1821 14.4869 92.2747 14.2481 92.3673 14.0093C92.4731 13.7705 92.5525 13.5185 92.6451 13.2797C92.7245 13.0409 92.8171 12.7888 92.8965 12.55C92.9758 12.2979 93.0552 12.0592 93.1346 11.8071C93.214 11.5683 93.2801 11.3162 93.3463 11.0642C93.4256 10.8121 93.4918 10.56 93.5579 10.308C93.6108 10.0559 93.677 9.80386 93.7299 9.5518C93.796 9.28647 93.849 9.03441 93.9019 8.78235C93.9548 8.51702 93.9945 8.26496 94.0474 7.99963C94.0871 7.74757 94.1268 7.48224 94.1665 7.21691C94.2061 6.96485 94.2458 6.69952 94.2723 6.4342C94.312 6.16887 94.3384 5.90354 94.3649 5.63821C94.3913 5.37288 94.4178 5.10756 94.431 4.84223C94.4575 4.5769 94.4707 4.29831 94.4839 4.03298C94.4972 3.76765 94.5104 3.50232 94.5104 3.22373V3.21046C94.4972 2.78594 94.1665 2.44101 93.7431 2.44101H93.7299H93.7167H93.7034H93.6902H93.677H93.6637H93.6505H93.6373H93.2404H92.8832H92.7774H92.3012H92.0366H91.8382H91.3619H91.1899H90.8989H90.4226H90.3433H89.9596H89.4966H89.4834H89.0204H88.6367H88.5441H88.0811H87.7636H87.6049H87.1418H86.8905H86.6656H86.2026H86.0174H85.7396H85.2633H85.1443H84.8003H84.3241H84.2579H83.8611H83.3848H83.3716H82.9218H82.4852H82.4455H81.9825H81.5857H81.5063H81.0433H80.6861H80.567H80.104H79.7865H79.6278H79.1648H78.8869H78.6885C65.7638 2.44101 50.8679 2.44101 37.9432 2.44101H37.8506H37.5463H37.1362H36.9907H36.7393H36.3557H36.1572H35.972H35.5884H35.3106H35.218H34.8476H34.4772Z" fill="#38AA3D"/>
<path fill-rule="evenodd" clip-rule="evenodd" d="M36.9114 21.7436C36.9114 22.5529 36.5939 23.2029 35.7075 23.2029C34.8212 23.2029 34.4905 22.5662 34.4905 21.7569V13.1205C34.4905 12.3112 34.8212 11.6744 35.7075 11.6744C36.5939 11.6744 36.9114 12.3112 36.9114 13.1205V21.7436ZM40.6817 13.9695V16.1718H42.9041C43.6053 16.1718 44.3461 16.384 44.3461 17.2198C44.3461 18.0688 43.6317 18.3076 42.9041 18.3076H40.6817V21.7436C40.6817 22.5662 40.3509 23.2029 39.4514 23.2029C38.5782 23.2029 38.2607 22.5662 38.2607 21.7702V13.2266C38.2607 12.298 38.7238 11.7673 39.663 11.7673H43.2349C43.9889 11.7673 44.6504 12.0326 44.6504 12.8817C44.6504 13.744 43.9095 13.9695 43.1687 13.9695H40.6817ZM56.2125 17.4453C56.2125 18.9577 55.7892 20.3507 54.7838 21.4916C53.7122 22.6988 52.2967 23.2029 50.7092 23.2029C49.1085 23.2029 47.7195 22.6856 46.6479 21.4783C45.6293 20.3374 45.206 18.9577 45.206 17.4453C45.206 15.933 45.6161 14.54 46.6347 13.3991C47.7063 12.1918 49.1085 11.6744 50.7092 11.6744C52.3099 11.6744 53.7255 12.1786 54.797 13.3858C55.8156 14.5267 56.2125 15.933 56.2125 17.4453ZM67.0074 17.2994C67.0074 18.7985 66.6502 20.2445 65.6448 21.3855C64.5732 22.606 63.1313 23.0835 61.5306 23.0835H58.8186C57.9587 23.0835 57.3502 22.7121 57.3502 21.7967V13.2133C57.3502 12.8286 57.4163 12.4041 57.6942 12.1122C57.9852 11.8336 58.4482 11.7673 58.8319 11.7673H61.3454C62.5227 11.7673 63.7134 11.9928 64.7055 12.6694C65.4728 13.1868 66.0417 13.8899 66.4385 14.7257C66.8222 15.535 67.0074 16.3973 67.0074 17.2994ZM74.3627 20.616H69.9971L69.3886 22.2743C69.1902 22.805 68.8198 23.2029 68.2244 23.2029C67.9202 23.2029 67.6424 23.1233 67.4042 22.9244C67.1661 22.7254 67.0603 22.4468 67.0603 22.1416C67.0603 21.9294 67.0868 21.7304 67.1661 21.5314L70.5263 12.9745C70.8306 12.2051 71.3597 11.6346 72.2196 11.6346C73.0663 11.6346 73.6087 12.1122 73.8997 12.8817L77.2202 21.5181C77.2995 21.7171 77.3657 21.9426 77.3657 22.1549C77.3657 22.4733 77.2334 22.7254 76.9953 22.9244C76.7572 23.1233 76.4793 23.2029 76.1619 23.2029C75.5401 23.2029 75.1564 22.7917 74.9448 22.2212L74.3627 20.616ZM50.7092 13.8369C49.8758 13.8369 49.1879 14.1287 48.6191 14.739C47.9576 15.4554 47.7856 16.5034 47.7856 17.4453C47.7856 18.3209 47.9708 19.1832 48.4735 19.9261C49.0159 20.6956 49.77 21.0405 50.7092 21.0405C51.6485 21.0405 52.4158 20.6956 52.9582 19.9261C53.4609 19.1965 53.6328 18.3209 53.6328 17.4453C53.6328 16.5034 53.4609 15.4554 52.7994 14.739C52.2306 14.1287 51.5294 13.8369 50.7092 13.8369ZM59.7711 13.9297V20.9477H61.2792C62.2449 20.9477 63.1048 20.6558 63.7001 19.8598C64.2557 19.1302 64.4277 18.2015 64.4277 17.2994C64.4277 16.4105 64.2293 15.535 63.6208 14.8584C62.9725 14.1553 62.0862 13.9297 61.1469 13.9297H59.7711ZM73.6219 18.5332L72.1931 14.5665L70.7512 18.5332H73.6219Z" fill="#FEFEFE"/>
<path fill-rule="evenodd" clip-rule="evenodd" d="M22.1478 12.9745C22.1478 10.4274 25.1905 10.0294 25.971 10.905C26.2753 11.1968 26.4472 11.7275 26.4472 12.1388C26.434 13.8767 25.7858 14.1818 25.0185 16.3575C24.8333 17.2198 25.6403 17.3525 25.7593 16.6361C26.3679 13.1735 27.8892 10.7458 29.7942 11.6744C31.0112 12.2582 31.4743 13.8369 30.8657 15.0176C32.9427 15.4819 33.5115 18.8648 31.8711 19.6343C30.2572 20.1517 28.2199 18.7454 26.2091 17.8698C25.6403 17.6045 25.3095 18.0158 25.8916 18.3872C27.6775 19.6741 31.8579 19.8598 31.2626 22.261C30.9716 23.3754 29.6751 24.052 28.1935 23.6805C28.0876 25.3388 24.6746 26.1614 24.0131 24.2377C23.7088 22.8845 24.066 21.2793 24.9259 19.5016C25.2302 18.9179 25.2037 18.5464 25.1905 18.427C25.0847 18.3342 24.992 18.427 24.8994 18.6128C24.701 18.9975 24.5423 19.7802 24.5026 19.8996C24.066 21.2793 23.5369 22.7254 22.8093 23.9989C22.333 24.8347 21.7774 25.6042 21.1159 26.2409C20.3884 27.0104 19.793 27.5145 19.3433 27.7533C19.1977 27.8197 19.0655 27.8329 18.9199 27.7799C18.7744 27.7268 18.6686 27.6339 18.6024 27.488C18.5627 27.3819 18.5231 27.289 18.4966 27.1961C18.4437 27.0369 18.4701 26.891 18.5495 26.7583C18.6289 26.6257 18.748 26.5461 18.8935 26.5063C20.4545 26.1879 21.8303 24.8214 22.9416 22.6192C23.1797 22.1549 25.045 18.2015 24.3703 18.0556C24.2512 18.029 23.9602 18.3342 23.8808 18.4403C23.259 19.2761 23.6956 23.7601 20.6662 23.7203C19.3433 23.5611 18.8538 21.9957 19.1977 20.9079C18.232 21.0538 17.6367 20.0853 17.6367 19.422C17.6367 18.4536 18.1923 17.3923 19.6872 17.1535C21.0101 16.9545 22.4653 17.5117 23.8544 17.6974C24.4497 17.8035 24.5819 17.3657 24.1586 17.2596C22.161 16.7555 21.6054 16.9677 20.3619 16.7687C19.5814 16.6493 18.6554 16.2911 18.4172 15.4819C18.232 14.8584 18.4701 14.1685 18.8935 13.6909C19.6872 12.7755 21.0498 12.4837 22.1478 12.9745ZM28.0744 23.4815C27.876 22.1284 27.241 20.3772 25.3492 18.374C25.2037 18.2148 25.045 18.0423 24.9127 18.1882C24.7407 18.374 24.6746 18.6393 24.5555 18.9046C24.5555 18.5995 24.6481 18.4005 24.6349 18.1617C24.6349 17.9229 24.4893 17.8964 24.1851 17.976C22.1478 18.5066 20.772 18.971 19.1845 20.8813C21.1292 18.3607 22.3198 18.5332 23.8411 17.8433C24.066 17.7504 24.6084 17.7107 24.5423 17.4851C24.0792 15.389 23.2326 14.0757 22.161 13.0276C23.5898 13.9563 23.9999 15.6013 24.9524 17.2861L25.0317 17.3392C25.3625 17.4586 27.0293 16.2248 27.9289 15.7738C28.8417 15.3227 29.7413 14.991 30.7599 15.0176C29.0798 15.2166 27.3865 15.9064 25.4551 17.6443C25.3095 17.7902 25.3625 17.8168 25.4551 18.0025C25.7726 18.6526 26.6457 19.7669 27.0425 20.417C27.5717 21.2926 27.9421 21.9161 28.0744 23.4815Z" fill="#FEFEFE"/>
<path fill-rule="evenodd" clip-rule="evenodd" d="M77.326 11.356C77.3921 11.356 77.4318 11.4091 77.4318 11.5152C77.4318 11.6346 77.3921 11.6744 77.326 11.6744H76.9953V11.356H77.326ZM77.4451 11.8204C77.67 11.8071 77.7626 11.6744 77.7626 11.4754C77.7626 11.2234 77.6435 11.104 77.4054 11.104H76.7042V12.3776H76.9953V11.9132H77.1276C77.1673 11.9132 77.2069 11.953 77.2599 12.0194C77.326 12.0857 77.3921 12.2051 77.498 12.3776H77.8552C77.7361 12.1786 77.6567 12.0459 77.5906 11.9663C77.5377 11.8867 77.4847 11.8469 77.4451 11.8204ZM77.2466 10.4672C77.9478 10.4672 78.5034 11.0376 78.5034 11.7408C78.5034 12.4439 77.9478 13.0011 77.2466 13.0011C76.5455 13.0011 75.9899 12.4439 75.9899 11.7408C75.9899 11.0376 76.5455 10.4672 77.2466 10.4672ZM77.2466 10.7325C77.8022 10.7325 78.252 11.1836 78.252 11.7408C78.252 12.298 77.8022 12.749 77.2466 12.749C76.691 12.749 76.2412 12.298 76.2412 11.7408C76.2412 11.1836 76.691 10.7325 77.2466 10.7325Z" fill="#FEFEFE"/>
<path d="M35.6678 26.8114C35.5885 26.891 35.5091 26.9573 35.4165 26.9839C35.3239 27.0237 35.2313 27.0369 35.1387 27.0369C35.0461 27.0369 34.9535 27.0237 34.8741 26.9839C34.7947 26.9573 34.7153 26.9043 34.6624 26.8512C34.5963 26.7849 34.5566 26.7053 34.5169 26.6257C34.4905 26.5328 34.4905 26.4399 34.5037 26.3205L34.6095 25.6041C34.6227 25.4582 34.6624 25.3388 34.7286 25.246C34.7947 25.1531 34.8609 25.0868 34.9535 25.0204C35.0461 24.9674 35.1387 24.9276 35.2445 24.901C35.3503 24.8745 35.4694 24.8612 35.5752 24.8612C35.7075 24.8612 35.8398 24.8878 35.9721 24.9143C36.1044 24.9541 36.2235 24.9939 36.3293 25.047L36.0647 26.9971H35.6943L35.6678 26.8114ZM35.853 25.3123C35.8266 25.299 35.7737 25.2725 35.7208 25.2592C35.6678 25.246 35.6282 25.246 35.562 25.246C35.5091 25.246 35.4562 25.246 35.39 25.2592C35.3371 25.2725 35.2842 25.299 35.2313 25.3256C35.1916 25.3521 35.1387 25.3919 35.1122 25.4317C35.0725 25.4847 35.0461 25.5378 35.0461 25.5909L34.9402 26.3205C34.927 26.3736 34.9402 26.4267 34.9535 26.4532C34.9667 26.493 34.9932 26.5195 35.0196 26.5461C35.0461 26.5726 35.0858 26.5991 35.1254 26.5991C35.1651 26.6124 35.2048 26.6257 35.2577 26.6257C35.3371 26.6257 35.4165 26.6124 35.4959 26.5859C35.5752 26.5726 35.6414 26.5328 35.6943 26.493L35.853 25.3123ZM36.832 27.1828C36.8717 27.2624 36.9511 27.3155 37.0437 27.3686C37.1363 27.4216 37.2289 27.4482 37.3215 27.4482C37.3744 27.4482 37.4273 27.4349 37.4802 27.4084C37.5331 27.3818 37.5728 27.3553 37.6125 27.3155C37.6522 27.2757 37.6919 27.2226 37.7183 27.1696C37.758 27.1032 37.7713 27.0369 37.7845 26.9573C37.7183 26.9839 37.6522 27.0104 37.586 27.0104C37.5199 27.0237 37.4538 27.0369 37.3876 27.0369C37.2818 27.0369 37.1759 27.0237 37.0833 26.9839C36.9907 26.9573 36.9114 26.9043 36.8452 26.8512C36.7791 26.7849 36.7262 26.7053 36.6997 26.6124C36.66 26.5328 36.66 26.4267 36.6732 26.3073L36.7658 25.6041C36.7923 25.4715 36.832 25.3653 36.8981 25.2725C36.9643 25.1664 37.0437 25.1 37.1363 25.0337C37.2289 24.9806 37.3215 24.9276 37.4405 24.901C37.5464 24.8745 37.6654 24.8612 37.7845 24.8612C37.9168 24.8745 38.0358 24.8878 38.1549 24.9276C38.2872 24.9674 38.3798 25.0072 38.4724 25.0868L38.1946 27.0502C38.1681 27.1828 38.1284 27.3022 38.0755 27.3951C38.0094 27.5012 37.9432 27.5676 37.8506 27.6339C37.7713 27.7002 37.6786 27.74 37.5728 27.7798C37.4802 27.8064 37.3744 27.8196 37.2685 27.8196C37.1892 27.8196 37.1098 27.8064 37.0437 27.7931C36.9643 27.7798 36.8981 27.7533 36.832 27.7268C36.7658 27.687 36.6997 27.6472 36.6468 27.5941C36.5939 27.5543 36.5542 27.5012 36.5277 27.4349L36.832 27.1828ZM37.9961 25.3654C37.9565 25.3388 37.9168 25.3123 37.8639 25.299C37.8109 25.2858 37.758 25.2725 37.6919 25.2725C37.639 25.2725 37.586 25.2858 37.5331 25.299C37.4802 25.299 37.4405 25.3256 37.3876 25.3521C37.3479 25.3786 37.3082 25.4051 37.2685 25.4449C37.2421 25.498 37.2289 25.5378 37.2156 25.6041L37.1098 26.294C37.0966 26.3603 37.1098 26.4001 37.123 26.4399C37.1495 26.4797 37.1759 26.5063 37.2024 26.5328C37.2421 26.5593 37.2818 26.5726 37.3347 26.5859C37.3744 26.5991 37.4273 26.6124 37.4802 26.6124C37.5331 26.6124 37.5993 26.5991 37.6654 26.5859C37.7183 26.5726 37.7712 26.5461 37.8242 26.5195L37.9961 25.3654ZM39.8614 24.8612C39.9011 24.8612 39.9276 24.8745 39.9673 24.8745C40.007 24.8745 40.0466 24.8745 40.0996 24.8878L40.0334 25.2858C39.9805 25.2725 39.9276 25.2592 39.8482 25.2592C39.7821 25.2592 39.7159 25.2858 39.6498 25.299C39.5836 25.3256 39.5307 25.3653 39.491 25.4184C39.4381 25.4582 39.4116 25.5245 39.3984 25.5909L39.2 26.9971H38.7634L38.9619 25.5909C38.9751 25.4317 39.028 25.299 39.1206 25.1929C39.2132 25.0868 39.319 25.0072 39.4381 24.9541C39.5175 24.9143 39.6101 24.8878 39.6895 24.8878C39.7688 24.8745 39.835 24.8612 39.8614 24.8612ZM40.3377 25.5909C40.3509 25.4715 40.3906 25.3653 40.4567 25.2725C40.5097 25.1796 40.589 25.1133 40.6684 25.047C40.761 24.9939 40.8536 24.9408 40.9594 24.9143C41.052 24.8878 41.1579 24.8612 41.2637 24.8612C41.3563 24.8612 41.4621 24.8878 41.5547 24.9143C41.6473 24.9408 41.7267 24.9939 41.7929 25.047C41.859 25.1133 41.9119 25.1796 41.9516 25.2725C41.9781 25.3653 41.9913 25.4715 41.9781 25.5909L41.8722 26.3205C41.859 26.4399 41.8193 26.5461 41.7664 26.6389C41.7003 26.7185 41.6341 26.7981 41.5415 26.8645C41.4621 26.9175 41.3695 26.9706 41.2637 26.9971C41.1579 27.0237 41.0653 27.0369 40.9594 27.0369C40.8536 27.0369 40.761 27.0237 40.6684 26.9971C40.5626 26.9706 40.4832 26.9175 40.4171 26.8645C40.3509 26.7981 40.298 26.7185 40.2583 26.6389C40.2318 26.5461 40.2186 26.4399 40.2318 26.3205L40.3377 25.5909ZM41.1976 25.299C41.1579 25.299 41.105 25.299 41.0653 25.3123C41.0124 25.3256 40.9727 25.3521 40.933 25.3654C40.8933 25.3919 40.8536 25.4317 40.8272 25.4582C40.8007 25.498 40.7875 25.5378 40.7742 25.5909L40.6816 26.294C40.6684 26.3471 40.6816 26.3869 40.6949 26.4267C40.7081 26.4665 40.7345 26.493 40.7742 26.5195C40.8007 26.5593 40.8404 26.5726 40.8933 26.5859C40.933 26.5991 40.9727 26.6124 41.0256 26.6124C41.0653 26.6124 41.105 26.5991 41.1579 26.5859C41.1976 26.5726 41.2505 26.5593 41.2902 26.5195C41.3299 26.493 41.3563 26.4665 41.3828 26.4267C41.4092 26.3869 41.4357 26.3471 41.4357 26.294L41.5415 25.5909C41.5415 25.5378 41.5415 25.498 41.5151 25.4582C41.5018 25.4317 41.4754 25.3919 41.4489 25.3654C41.4092 25.3521 41.3695 25.3256 41.3299 25.3123C41.2902 25.299 41.2505 25.299 41.1976 25.299ZM44.9546 24.901H45.5102L44.5048 25.8695L45.2192 26.9971H44.69L44.1476 26.1481L44.0153 26.2675L43.9095 26.9971H43.473L43.8698 24.1448H44.3064L44.0815 25.7501L44.9546 24.901ZM46.2114 24.105C46.2907 24.105 46.3569 24.1316 46.3966 24.1846C46.4495 24.2377 46.4627 24.304 46.4495 24.3836C46.4363 24.4632 46.3966 24.5296 46.3436 24.5826C46.2775 24.6357 46.2114 24.6622 46.132 24.6622C46.0526 24.6622 45.9865 24.6357 45.9468 24.5826C45.8939 24.5296 45.8806 24.4632 45.8939 24.3836C45.9071 24.304 45.9468 24.2377 45.9997 24.1846C46.0658 24.1316 46.132 24.105 46.2114 24.105ZM46.3304 24.901L46.0261 26.9971H45.5896L45.8806 24.901H46.3304ZM46.8728 25.0868C46.9786 25.0204 47.0977 24.9674 47.23 24.9276C47.3623 24.8878 47.4946 24.8612 47.6269 24.8612C47.7459 24.8745 47.8518 24.901 47.9576 24.9408C48.0634 24.9939 48.1428 25.0602 48.1825 25.1664C48.2619 25.0735 48.3545 24.9939 48.4603 24.9408C48.5661 24.8878 48.6852 24.8612 48.8175 24.8612C48.9101 24.8612 49.0027 24.8878 49.0821 24.9143C49.1747 24.9541 49.2408 24.9939 49.3069 25.0602C49.3731 25.1266 49.4128 25.1929 49.4392 25.2858C49.4789 25.3786 49.4789 25.4847 49.4657 25.6041L49.2673 26.9971H48.8307L49.0291 25.6174C49.0424 25.5245 49.0291 25.4449 48.963 25.3919C48.9101 25.3255 48.8439 25.299 48.7513 25.299C48.7116 25.299 48.6587 25.3123 48.619 25.3256C48.5794 25.3388 48.5264 25.3653 48.4867 25.3919C48.4603 25.4184 48.4206 25.4449 48.3941 25.4847C48.3677 25.5245 48.3412 25.5511 48.3412 25.6041L48.1428 26.9971H47.7195L47.9047 25.5776C47.9179 25.5378 47.9179 25.4847 47.8914 25.4582C47.8782 25.4184 47.865 25.3919 47.8253 25.3654C47.7988 25.3521 47.7592 25.3256 47.7195 25.3123C47.6798 25.299 47.6401 25.299 47.5872 25.299C47.5343 25.299 47.4813 25.299 47.4284 25.3123C47.3623 25.3256 47.3094 25.3521 47.2697 25.3786L47.0448 26.9971H46.6082L46.8728 25.0868ZM51.4765 27.0502C51.4633 27.1828 51.4236 27.3022 51.3574 27.4084C51.2913 27.5012 51.2252 27.5808 51.1325 27.6339C51.0399 27.7002 50.9473 27.7533 50.8415 27.7798C50.7357 27.8064 50.6298 27.8196 50.524 27.8196C50.4446 27.8196 50.3653 27.8064 50.2859 27.7931C50.2197 27.7798 50.1404 27.7533 50.0742 27.7268C50.0081 27.687 49.9552 27.6472 49.9022 27.5941C49.8493 27.5543 49.8096 27.5012 49.77 27.4349L50.0742 27.1828C50.1271 27.2624 50.1933 27.3155 50.2859 27.3553C50.3785 27.3951 50.4843 27.4216 50.5769 27.4216C50.696 27.4216 50.8018 27.3818 50.8944 27.3155C50.987 27.2359 51.0532 27.1165 51.0664 26.9573C50.9341 27.0104 50.7886 27.0369 50.6563 27.0369C50.5505 27.0369 50.4446 27.0237 50.352 26.9839C50.2594 26.9573 50.1668 26.9043 50.1007 26.8379C50.0345 26.7849 49.9816 26.7053 49.9419 26.6124C49.9155 26.5195 49.9023 26.4267 49.9155 26.3073L50.1139 24.901H50.5505L50.3653 26.294C50.352 26.3603 50.3653 26.4001 50.3785 26.4399C50.405 26.4797 50.4314 26.5195 50.4711 26.5461C50.5108 26.5726 50.5505 26.5991 50.6034 26.6124C50.6563 26.6257 50.7092 26.6389 50.7621 26.6389C50.8283 26.6389 50.8812 26.6257 50.9473 26.6124C51.0135 26.5991 51.0664 26.5726 51.1193 26.5461L51.3442 24.901H51.7808L51.4765 27.0502ZM52.2041 25.5909C52.2173 25.4715 52.257 25.3653 52.3232 25.2725C52.3761 25.1796 52.4555 25.1133 52.5348 25.047C52.6274 24.9939 52.72 24.9408 52.8259 24.9143C52.9317 24.8878 53.0375 24.8612 53.1301 24.8612C53.236 24.8612 53.3286 24.8878 53.4212 24.9143C53.5138 24.9408 53.5931 24.9939 53.6725 25.047C53.7387 25.1133 53.7916 25.1796 53.818 25.2725C53.8577 25.3653 53.871 25.4715 53.8445 25.5909L53.7519 26.3205C53.7387 26.4399 53.699 26.5461 53.6328 26.6389C53.5799 26.7185 53.5005 26.7981 53.4212 26.8645C53.3286 26.9175 53.236 26.9706 53.1301 26.9971C53.0375 27.0237 52.9317 27.0369 52.8259 27.0369C52.7333 27.0369 52.6274 27.0237 52.5348 26.9971C52.4422 26.9706 52.3628 26.9175 52.2835 26.8645C52.2173 26.7981 52.1644 26.7185 52.138 26.6389C52.0983 26.5461 52.085 26.4399 52.1115 26.3205L52.2041 25.5909ZM53.0772 25.299C53.0243 25.299 52.9846 25.299 52.9317 25.3123C52.892 25.3256 52.8391 25.3521 52.7994 25.3654C52.7597 25.3919 52.7333 25.4317 52.7068 25.4582C52.6803 25.498 52.6539 25.5378 52.6539 25.5909L52.548 26.294C52.548 26.3471 52.5481 26.3869 52.5613 26.4267C52.5877 26.4665 52.6142 26.493 52.6407 26.5195C52.6803 26.5593 52.72 26.5726 52.7597 26.5859C52.7994 26.5991 52.8523 26.6124 52.892 26.6124C52.9449 26.6124 52.9846 26.5991 53.0243 26.5859C53.0772 26.5726 53.1169 26.5593 53.1566 26.5195C53.1963 26.493 53.236 26.4665 53.2624 26.4267C53.2889 26.3869 53.3021 26.3471 53.3153 26.294L53.4079 25.5909C53.4212 25.5378 53.4079 25.498 53.3947 25.4582C53.3683 25.4317 53.3418 25.3919 53.3153 25.3654C53.2756 25.3521 53.2492 25.3256 53.1963 25.3123C53.1566 25.299 53.1169 25.299 53.0772 25.299ZM56.067 24.9541C56.1993 24.8878 56.3448 24.8612 56.4771 24.8612C56.5697 24.8612 56.6755 24.8745 56.7681 24.9143C56.8475 24.9408 56.9269 24.9806 56.993 25.047C57.0591 25.1 57.1121 25.1796 57.1385 25.2725C57.1782 25.3653 57.1782 25.4715 57.165 25.6041L56.9798 26.9971H56.5432L56.7284 25.6174C56.7284 25.5643 56.7284 25.5113 56.7152 25.4715C56.6887 25.4317 56.6623 25.4051 56.6358 25.3786C56.5961 25.3521 56.5564 25.3256 56.5035 25.3123C56.4638 25.299 56.4109 25.299 56.358 25.299C56.2919 25.299 56.2389 25.3123 56.1728 25.3256C56.1067 25.3388 56.0537 25.3521 56.0008 25.3919L55.7892 26.9971H55.3394L55.7362 24.1448H56.1728L56.067 24.9541ZM58.1572 24.105C58.2365 24.105 58.3027 24.1316 58.3556 24.1846C58.3953 24.2377 58.4085 24.304 58.3953 24.3836C58.3953 24.4632 58.3556 24.5296 58.2894 24.5826C58.2365 24.6357 58.1572 24.6622 58.0778 24.6622C57.9984 24.6622 57.9455 24.6357 57.8926 24.5826C57.8529 24.5296 57.8264 24.4632 57.8397 24.3836C57.8529 24.304 57.8926 24.2377 57.9587 24.1846C58.0116 24.1316 58.0778 24.105 58.1572 24.105ZM58.2762 24.901L57.9852 26.9971H57.5354L57.8397 24.901H58.2762ZM58.8186 25.0868C58.9244 25.0204 59.0435 24.9674 59.1758 24.9276C59.3081 24.8878 59.4404 24.8612 59.5727 24.8612C59.6917 24.8745 59.8108 24.901 59.9166 24.9408C60.0224 24.9939 60.0886 25.0602 60.1415 25.1664C60.2076 25.0735 60.3003 24.9939 60.4061 24.9408C60.5251 24.8878 60.6442 24.8612 60.7765 24.8612C60.8691 24.8612 60.9617 24.8878 61.0411 24.9143C61.1205 24.9541 61.1998 24.9939 61.266 25.0602C61.3189 25.1266 61.3718 25.1929 61.3983 25.2858C61.4247 25.3786 61.4379 25.4847 61.4115 25.6041L61.2263 26.9971H60.7897L60.9749 25.6174C61.0014 25.5245 60.9749 25.4449 60.922 25.3919C60.8559 25.3255 60.7897 25.299 60.7104 25.299C60.6574 25.299 60.6177 25.3123 60.5781 25.3256C60.5251 25.3388 60.4855 25.3653 60.4458 25.3919C60.4061 25.4184 60.3664 25.4449 60.3399 25.4847C60.3135 25.5245 60.3003 25.5511 60.3003 25.6041L60.1018 26.9971H59.6653L59.8637 25.5776C59.8637 25.5378 59.8637 25.4847 59.8505 25.4582C59.8372 25.4184 59.8108 25.3919 59.7843 25.3654C59.7579 25.3521 59.7182 25.3256 59.6785 25.3123C59.6388 25.299 59.5859 25.299 59.5462 25.299C59.4933 25.299 59.4404 25.299 59.3742 25.3123C59.3213 25.3256 59.2684 25.3521 59.2155 25.3786L59.0038 26.9971H58.5673L58.8186 25.0868ZM61.9274 25.5909C61.9406 25.4715 61.9803 25.3653 62.0465 25.2725C62.0994 25.1796 62.1788 25.1133 62.2581 25.047C62.3507 24.9939 62.4433 24.9408 62.5492 24.9143C62.655 24.8878 62.7476 24.8612 62.8534 24.8612C62.9593 24.8612 63.0519 24.8878 63.1445 24.9143C63.2371 24.9408 63.3165 24.9939 63.3826 25.047C63.462 25.1133 63.5017 25.1796 63.5414 25.2725C63.581 25.3653 63.581 25.4715 63.5678 25.5909L63.4752 26.3205C63.4488 26.4399 63.4223 26.5461 63.3562 26.6389C63.29 26.7185 63.2239 26.7981 63.1313 26.8645C63.0519 26.9175 62.9593 26.9706 62.8534 26.9971C62.7476 27.0237 62.655 27.0369 62.5492 27.0369C62.4566 27.0369 62.3507 27.0237 62.2581 26.9971C62.1655 26.9706 62.0862 26.9175 62.0068 26.8645C61.9406 26.7981 61.8877 26.7185 61.8613 26.6389C61.8216 26.5461 61.8084 26.4399 61.8216 26.3205L61.9274 25.5909ZM62.8005 25.299C62.7476 25.299 62.7079 25.299 62.655 25.3123C62.6021 25.3256 62.5624 25.3521 62.5227 25.3654C62.483 25.3919 62.4566 25.4317 62.4301 25.4582C62.4037 25.498 62.3772 25.5378 62.3772 25.5909L62.2714 26.294C62.2714 26.3471 62.2714 26.3869 62.2846 26.4267C62.3111 26.4665 62.3375 26.493 62.364 26.5195C62.4037 26.5593 62.4434 26.5726 62.483 26.5859C62.5227 26.5991 62.5756 26.6124 62.6153 26.6124C62.655 26.6124 62.7079 26.5991 62.7476 26.5859C62.8005 26.5726 62.8402 26.5593 62.8799 26.5195C62.9196 26.493 62.9461 26.4665 62.9857 26.4267C63.0122 26.3869 63.0254 26.3471 63.0254 26.294L63.1313 25.5909C63.1313 25.5378 63.1313 25.498 63.118 25.4582C63.0916 25.4317 63.0651 25.3919 63.0387 25.3654C62.999 25.3521 62.9725 25.3256 62.9196 25.3123C62.8799 25.299 62.8402 25.299 62.8005 25.299ZM65.5389 27.0502C65.5125 27.1828 65.4728 27.3022 65.4199 27.4084C65.3537 27.5012 65.2744 27.5808 65.195 27.6339C65.1024 27.7002 65.0098 27.7533 64.9039 27.7798C64.7981 27.8064 64.6923 27.8196 64.5865 27.8196C64.5071 27.8196 64.4277 27.8064 64.3483 27.7931C64.269 27.7798 64.2028 27.7533 64.1367 27.7268C64.0705 27.687 64.0044 27.6472 63.9647 27.5941C63.9118 27.5543 63.8721 27.5012 63.8324 27.4349L64.1367 27.1828C64.1764 27.2624 64.2557 27.3155 64.3483 27.3553C64.4409 27.3951 64.5335 27.4216 64.6394 27.4216C64.7584 27.4216 64.8643 27.3818 64.9569 27.3155C65.0495 27.2359 65.1024 27.1165 65.1288 26.9573C64.9833 27.0104 64.851 27.0369 64.7055 27.0369C64.5997 27.0369 64.5071 27.0237 64.4145 26.9839C64.3086 26.9573 64.2293 26.9043 64.1631 26.8379C64.0837 26.7849 64.0441 26.7053 64.0044 26.6124C63.9647 26.5195 63.9647 26.4267 63.9779 26.3073L64.1763 24.901H64.6129L64.4145 26.294C64.4145 26.3603 64.4145 26.4001 64.4409 26.4399C64.4674 26.4797 64.4938 26.5195 64.5335 26.5461C64.5732 26.5726 64.6129 26.5991 64.6658 26.6124C64.7055 26.6257 64.7584 26.6389 64.8113 26.6389C64.8775 26.6389 64.9436 26.6257 65.0098 26.6124C65.0759 26.5991 65.1288 26.5726 65.1685 26.5461L65.3934 24.901H65.8432L65.5389 27.0502ZM67.3249 26.8114C67.2455 26.891 67.1661 26.9573 67.0735 26.9839C66.9809 27.0237 66.8883 27.0369 66.7957 27.0369C66.7031 27.0369 66.6237 27.0237 66.5311 26.9839C66.4517 26.9573 66.3856 26.9043 66.3194 26.8512C66.2533 26.7849 66.2136 26.7053 66.1872 26.6257C66.1475 26.5328 66.1475 26.4399 66.1607 26.3205L66.2665 25.6041C66.2798 25.4582 66.3195 25.3388 66.3856 25.246C66.4517 25.1531 66.5179 25.0868 66.6105 25.0204C66.7031 24.9674 66.7957 24.9276 66.9015 24.901C67.0206 24.8745 67.1264 24.8612 67.2455 24.8612C67.3645 24.8612 67.4968 24.8878 67.6291 24.9143C67.7614 24.9541 67.8805 24.9939 67.9863 25.047L67.7217 26.9971H67.3645L67.3249 26.8114ZM67.5233 25.3123C67.4836 25.299 67.4307 25.2725 67.3778 25.2592C67.3381 25.246 67.2852 25.246 67.2323 25.246C67.1661 25.246 67.1132 25.246 67.047 25.2592C66.9941 25.2725 66.9412 25.299 66.8883 25.3256C66.8486 25.3521 66.8089 25.3919 66.7692 25.4317C66.7295 25.4847 66.7163 25.5378 66.7031 25.5909L66.5973 26.3205C66.5973 26.3736 66.5973 26.4267 66.6105 26.4532C66.6237 26.493 66.6502 26.5195 66.6766 26.5461C66.7031 26.5726 66.7428 26.5991 66.7825 26.5991C66.8222 26.6124 66.8751 26.6257 66.9148 26.6257C66.9941 26.6257 67.0735 26.6124 67.1529 26.5859C67.2323 26.5726 67.2984 26.5328 67.3513 26.493L67.5233 25.3123Z" fill="#FEFEFE"/>
</g>
<defs>
<clipPath id="clip0_11_285">
<rect width="97" height="37" fill="white"/>
</clipPath>
</defs>
</svg>
